<svg xmlns="http://www.w3.org/2000/svg" version="1.1" xmlns:xlink="http://www.w3.org/1999/xlink" xmlns:svgjs="http://svgjs.dev/svgjs" width="100" height="96"><svg width="100" height="96" viewBox="0 0 100 96" fill="none" xmlns="http://www.w3.org/2000/svg">
<path d="M45.8384 64.6677L20.4998 20.9248L33.0859 31.025L49.174 58.8904L45.8384 64.6677Z" fill="#5E47FF"></path>
<path d="M69.6244 38.1848L44.4112 82.0002L46.8652 66.0502L62.9533 38.1848L69.6244 38.1848Z" fill="#5E47FF"></path>
<path d="M34.9434 31.104L85.4952 31.0316L70.4551 36.8813H38.2789L34.9434 31.104Z" fill="#5E47FF"></path>
<path d="M45.8384 64.6677L20.4998 20.9248L33.0859 31.025L49.174 58.8904L45.8384 64.6677Z" fill="#5E47FF"></path>
<path d="M69.6244 38.1848L44.4112 82.0002L46.8652 66.0502L62.9533 38.1848L69.6244 38.1848Z" fill="#5E47FF"></path>
<g filter="url(#filter0_f_1_471)">
<path d="M34.9434 31.104L85.4952 31.0316L70.4551 36.8813H38.2789L34.9434 31.104Z" fill="#5E47FF"></path>
</g>
<path d="M50.0826 55.5891L59.6128 39.0823H40.5525L50.0826 55.5891Z" fill="#57E1FF"></path>
<g filter="url(#filter1_f_1_471)">
<path d="M45.8384 64.6677L20.4998 20.9248L33.0859 31.025L49.174 58.8904L45.8384 64.6677Z" fill="#5E47FF"></path>
</g>
<g filter="url(#filter2_f_1_471)">
<path d="M69.6244 38.1848L44.4112 82.0002L46.8652 66.0502L62.9533 38.1848L69.6244 38.1848Z" fill="#5E47FF"></path>
</g>
<path d="M34.9434 31.104L85.4952 31.0316L70.4551 36.8813H38.2789L34.9434 31.104Z" fill="#5E47FF"></path>
<defs>
<filter id="SvgjsFilter1005" x="14.9434" y="11.0315" width="90.5518" height="45.8499" filterUnits="userSpaceOnUse" color-interpolation-filters="sRGB">
<feFlood flood-opacity="0" result="BackgroundImageFix"></feFlood>
<feBlend mode="normal" in="SourceGraphic" in2="BackgroundImageFix" result="shape"></feBlend>
<feGaussianBlur stdDeviation="10" result="effect1_foregroundBlur_1_471"></feGaussianBlur>
</filter>
<filter id="SvgjsFilter1004" x="0.5" y="0.924805" width="68.6738" height="83.7429" filterUnits="userSpaceOnUse" color-interpolation-filters="sRGB">
<feFlood flood-opacity="0" result="BackgroundImageFix"></feFlood>
<feBlend mode="normal" in="SourceGraphic" in2="BackgroundImageFix" result="shape"></feBlend>
<feGaussianBlur stdDeviation="10" result="effect1_foregroundBlur_1_471"></feGaussianBlur>
</filter>
<filter id="SvgjsFilter1003" x="24.4111" y="18.1848" width="65.2129" height="83.8154" filterUnits="userSpaceOnUse" color-interpolation-filters="sRGB">
<feFlood flood-opacity="0" result="BackgroundImageFix"></feFlood>
<feBlend mode="normal" in="SourceGraphic" in2="BackgroundImageFix" result="shape"></feBlend>
<feGaussianBlur stdDeviation="10" result="effect1_foregroundBlur_1_471"></feGaussianBlur>
</filter>
</defs>
</svg><style>@media (prefers-color-scheme: light) { :root { filter: none; } }
@media (prefers-color-scheme: dark) { :root { filter: none; } }
</style></svg>