<svg width="132" height="64" viewBox="0 0 132 64" fill="none" xmlns="http://www.w3.org/2000/svg">
<g clip-path="url(#clip0_1_28)">
<path d="M62.0862 31.0657H55.603L52.2197 46.626H59.2033C64.228 46.626 65.7194 43.8597 65.7371 41.6769C65.7525 39.7751 64.6729 38.9971 63.6536 38.6621L63.687 38.4892C65.116 38.1759 66.85 37.0088 66.8694 34.61C66.8881 32.2975 65.0989 31.0657 62.0862 31.0657ZM56.823 43.4491L57.508 40.3586H60.2652C61.3192 40.3586 61.9438 40.7909 61.9365 41.6877C61.929 42.617 61.2197 43.4491 59.7293 43.4491H56.823ZM58.1937 37.1817L58.8349 34.2426H61.3792C62.4332 34.2426 63.0154 34.6424 63.0085 35.496C63.0014 36.3821 62.3349 37.1817 60.8126 37.1817H58.1937Z" fill="white"/>
<path d="M68.8921 31.0657L65.5088 46.626H76.6571L77.3976 43.2546H70.2946L72.9375 31.0657H68.8921Z" fill="white"/>
<path d="M84.5232 31.0657L76.8949 46.3018L76.8284 46.626H80.6715L82.1668 43.3842H86.7125L86.8034 46.626H90.4868L90.5533 46.3018L89.548 31.0657H84.5232ZM83.6836 40.1209L86.3057 34.4479H86.476L86.6218 40.1209H83.6836Z" fill="white"/>
<path d="M98.2062 31.0657H93.8308L90.4475 46.626H95.8342C102.615 46.626 104.839 41.5689 104.874 37.2466C104.906 33.2376 102.273 31.0657 98.2062 31.0657ZM95.1475 43.341L97.0831 34.3506H98.0519C99.9255 34.3506 100.992 35.388 100.976 37.3654C100.953 40.2506 99.5016 43.341 96.393 43.341H95.1475Z" fill="white"/>
<path d="M107.12 31.0657L103.737 46.626H115.34L116.026 43.4491H108.382L109.057 40.3802H115.487L116.172 37.2033H109.753L110.394 34.2426H117.889L118.575 31.0657H107.12Z" fill="white"/>
<path d="M68.3253 13.0552L67.6064 16.3834H72.0137L69.3493 28.6155H73.352L76.0165 16.3834H80.4238L81.1426 13.0552H68.3253Z" fill="white"/>
<path d="M87.9272 13.0552H81.6357L78.2524 28.6155H82.17L83.4969 22.4994H83.7098L86.8647 28.6155H90.8355L90.902 28.2913L87.723 22.521C91.6006 22.1969 93.0346 19.9601 93.0565 17.2478C93.0781 14.568 91.0996 13.0552 87.9272 13.0552ZM84.1161 19.6467L84.8676 16.2321H87.3693C88.5829 16.2321 89.2709 16.7183 89.2632 17.6692C89.2552 18.6634 88.5446 19.6467 86.7775 19.6467H84.1161Z" fill="white"/>
<path d="M97.7778 13.0552L90.1495 28.2913L90.083 28.6155H93.9261L95.4214 25.3737H99.967L100.058 28.6155H103.741L103.808 28.2913L102.803 13.0552H97.7778ZM96.9381 22.1104L99.5602 16.4374H99.7305L99.8763 22.1104H96.9381Z" fill="white"/>
<path d="M111.461 13.0552H107.085L103.702 28.6155H109.089C115.87 28.6155 118.093 23.5584 118.128 19.2361C118.161 15.2271 115.527 13.0552 111.461 13.0552ZM108.402 25.3305L110.338 16.3401H111.306C113.18 16.3401 114.247 17.3775 114.231 19.3549C114.208 22.2401 112.756 25.3305 109.648 25.3305H108.402Z" fill="white"/>
<path d="M120.374 13.0552L116.991 28.6155H128.595L129.281 25.4386H121.637L122.311 22.3697H128.741L129.427 19.1928H123.008L123.649 16.2321H131.143L131.829 13.0552H120.374Z" fill="white"/>
<path d="M25.3384 46.6677L-0.000151109 2.92478L12.5859 13.025L28.674 40.8904L25.3384 46.6677Z" fill="#5E47FF"/>
<path d="M49.1244 20.1848L23.9112 64.0002L26.3652 48.0502L42.4533 20.1848L49.1244 20.1848Z" fill="#5E47FF"/>
<path d="M14.4434 13.104L64.9952 13.0316L49.9551 18.8813L17.7789 18.8813L14.4434 13.104Z" fill="#5E47FF"/>
<path d="M25.3384 46.6677L-0.000151109 2.92478L12.5859 13.025L28.674 40.8904L25.3384 46.6677Z" fill="#5E47FF"/>
<path d="M49.1244 20.1848L23.9112 64.0002L26.3652 48.0502L42.4533 20.1848L49.1244 20.1848Z" fill="#5E47FF"/>
<g filter="url(#filter0_f_1_28)">
<path d="M14.4434 13.104L64.9952 13.0316L49.9551 18.8813L17.7789 18.8813L14.4434 13.104Z" fill="#5E47FF"/>
</g>
<path d="M29.5826 37.5891L39.1128 21.0823H20.0525L29.5826 37.5891Z" fill="#57E1FF"/>
<g filter="url(#filter1_f_1_28)">
<path d="M25.3384 46.6677L-0.000151109 2.92478L12.5859 13.025L28.674 40.8904L25.3384 46.6677Z" fill="#5E47FF"/>
</g>
<g filter="url(#filter2_f_1_28)">
<path d="M49.1244 20.1848L23.9112 64.0002L26.3652 48.0502L42.4533 20.1848L49.1244 20.1848Z" fill="#5E47FF"/>
</g>
<path d="M14.4434 13.104L64.9952 13.0316L49.9551 18.8813L17.7789 18.8813L14.4434 13.104Z" fill="#5E47FF"/>
</g>
<defs>
<filter id="filter0_f_1_28" x="-5.55664" y="-6.96851" width="90.5518" height="45.8499" filterUnits="userSpaceOnUse" color-interpolation-filters="sRGB">
<feFlood flood-opacity="0" result="BackgroundImageFix"/>
<feBlend mode="normal" in="SourceGraphic" in2="BackgroundImageFix" result="shape"/>
<feGaussianBlur stdDeviation="10" result="effect1_foregroundBlur_1_28"/>
</filter>
<filter id="filter1_f_1_28" x="-20" y="-17.0752" width="68.6738" height="83.7429" filterUnits="userSpaceOnUse" color-interpolation-filters="sRGB">
<feFlood flood-opacity="0" result="BackgroundImageFix"/>
<feBlend mode="normal" in="SourceGraphic" in2="BackgroundImageFix" result="shape"/>
<feGaussianBlur stdDeviation="10" result="effect1_foregroundBlur_1_28"/>
</filter>
<filter id="filter2_f_1_28" x="3.91113" y="0.184814" width="65.2129" height="83.8154" filterUnits="userSpaceOnUse" color-interpolation-filters="sRGB">
<feFlood flood-opacity="0" result="BackgroundImageFix"/>
<feBlend mode="normal" in="SourceGraphic" in2="BackgroundImageFix" result="shape"/>
<feGaussianBlur stdDeviation="10" result="effect1_foregroundBlur_1_28"/>
</filter>
<clipPath id="clip0_1_28">
<rect width="131.829" height="64" fill="white"/>
</clipPath>
</defs>
</svg>
